<mxfile host="app.diagrams.net" modified="2023-11-23T13:28:35.541Z" agent="Mozilla/5.0 (Macintosh; Intel Mac OS X 10_15_7) AppleWebKit/537.36 (KHTML, like Gecko) Chrome/118.0.0.0 Safari/537.36" etag="XF6oB8y8ujbRJXD5tyS7" version="22.1.3" type="github">
  <diagram name="第 1 页" id="AdArlx59QjhBIkUGhL2v">
    <mxGraphModel dx="858" dy="505" grid="1" gridSize="10" guides="1" tooltips="1" connect="1" arrows="1" fold="1" page="1" pageScale="1" pageWidth="827" pageHeight="1169" math="0" shadow="0">
      <root>
        <mxCell id="0" />
        <mxCell id="1" parent="0" />
        <mxCell id="dzQiU4bibB6O6Dchx6-J-9" value="" style="ellipse;whiteSpace=wrap;html=1;aspect=fixed;" vertex="1" parent="1">
          <mxGeometry x="284" y="325" width="285" height="285" as="geometry" />
        </mxCell>
        <mxCell id="dzQiU4bibB6O6Dchx6-J-1" value="Performance" style="ellipse;whiteSpace=wrap;html=1;aspect=fixed;fillColor=#1ba1e2;fontColor=#ffffff;strokeColor=#006EAF;" vertex="1" parent="1">
          <mxGeometry x="386.5" y="290" width="80" height="80" as="geometry" />
        </mxCell>
        <mxCell id="dzQiU4bibB6O6Dchx6-J-2" value="Storage" style="ellipse;whiteSpace=wrap;html=1;aspect=fixed;fillColor=#1ba1e2;fontColor=#ffffff;strokeColor=#006EAF;" vertex="1" parent="1">
          <mxGeometry x="240" y="485" width="80" height="80" as="geometry" />
        </mxCell>
        <mxCell id="dzQiU4bibB6O6Dchx6-J-3" value="Elastic Scaling" style="ellipse;whiteSpace=wrap;html=1;aspect=fixed;fillColor=#1ba1e2;fontColor=#ffffff;strokeColor=#006EAF;" vertex="1" parent="1">
          <mxGeometry x="520" y="485" width="80" height="80" as="geometry" />
        </mxCell>
        <mxCell id="dzQiU4bibB6O6Dchx6-J-11" value="" style="strokeWidth=2;html=1;shape=mxgraph.flowchart.annotation_2;align=left;labelPosition=right;pointerEvents=1;rotation=180;" vertex="1" parent="1">
          <mxGeometry x="187" y="485" width="50" height="100" as="geometry" />
        </mxCell>
        <mxCell id="dzQiU4bibB6O6Dchx6-J-12" value="" style="html=1;verticalLabelPosition=bottom;align=center;labelBackgroundColor=#ffffff;verticalAlign=top;strokeWidth=2;strokeColor=#0080F0;shadow=0;dashed=0;shape=mxgraph.ios7.icons.stopwatch;" vertex="1" parent="1">
          <mxGeometry x="152" y="470.9" width="27" height="28.2" as="geometry" />
        </mxCell>
        <mxCell id="dzQiU4bibB6O6Dchx6-J-14" value="Time travel" style="text;html=1;align=center;verticalAlign=middle;resizable=0;points=[];autosize=1;strokeColor=none;fillColor=none;" vertex="1" parent="1">
          <mxGeometry x="72" y="469.1" width="80" height="30" as="geometry" />
        </mxCell>
      </root>
    </mxGraphModel>
  </diagram>
</mxfile>
